# xmcd CD database file
#
# Track frame offsets:
#	150
#	20606
#	51891
#	75765
#	102818
#	137371
#	155784
#	171549
#	200222
#	231943
#
# Disc length: 3655 seconds
#
# Revision: 0
# Processed by: cddbd v1.5.2PL0 Copyright (c) Steve Scherf et al.
# Submitted via: CDex 1.51
#
DISCID=810e450a
DTITLE=Ed Jackson - Colors
DYEAR=2009
DGENRE=Jazz
TTITLE0=Godfather of the Cats
TTITLE1=Quincy
TTITLE2=Puerto Rico
TTITLE3=Grace
TTITLE4=Weldon's Lament
TTITLE5=Colors
TTITLE6=Selena
TTITLE7=After Dark
TTITLE8=Saints and Sinners
TTITLE9=Exquisite Thoughts
EXTD=YEAR: 2009
EXTT0=
EXTT1=
EXTT2=
EXTT3=
EXTT4=
EXTT5=
EXTT6=
EXTT7=
EXTT8=
EXTT9=
PLAYORDER=
